<svg xmlns="http://www.w3.org/2000/svg" width="24" height="24" viewBox="0 0 24 24"><defs><style>.a,.b{fill:#65696e;}.a{opacity:0;}</style></defs><rect class="a" width="24" height="24" transform="translate(24 24) rotate(180)"/><g transform="translate(-0.055)"><path class="b" d="M17.67,7A6,6,0,0,0,6.33,7a5,5,0,0,0-3.08,8.27A1,1,0,1,0,4.75,14,3,3,0,0,1,7,9h.1a1,1,0,0,0,1-.8,4,4,0,0,1,7.84,0,1,1,0,0,0,1,.8H17a3,3,0,0,1,2.25,5,1,1,0,1,0,1.5,1.33A5,5,0,0,0,17.67,7Z"/><g transform="translate(22.053 9) rotate(90)"><g transform="translate(3 3.999)"><path class="b" d="M3.5,7.529H10l-.8.847a.911.911,0,0,0-.1.988.472.472,0,0,0,.4.282.414.414,0,0,0,.3-.141l2-2.117a.9.9,0,0,0,0-1.122L9.87,4.148a.412.412,0,0,0-.7.124.915.915,0,0,0,.088.992l.785.854H3.5c-.276,0-.5.316-.5.706S3.224,7.529,3.5,7.529Z" transform="translate(-3 -3.999)"/><path class="b" d="M11.5,15.117H5l.8-.847a.911.911,0,0,0,.1-.988.413.413,0,0,0-.7-.141l-2,2.117a.9.9,0,0,0,0,1.122L5.133,18.5a.418.418,0,0,0,.3.148.47.47,0,0,0,.4-.275.915.915,0,0,0-.085-.988l-.785-.854H11.5c.276,0,.5-.316.5-.706S11.779,15.117,11.5,15.117Z" transform="translate(-3.003 -6.647)"/></g></g></g></svg>