<?xml version="1.0" encoding="utf-8"?>
<!-- Generator: Adobe Illustrator 26.0.0, SVG Export Plug-In . SVG Version: 6.00 Build 0)  -->
<svg version="1.1" id="Layer_1" xmlns="http://www.w3.org/2000/svg" xmlns:xlink="http://www.w3.org/1999/xlink" x="0px" y="0px"
	 viewBox="0 0 32 32" style="enable-background:new 0 0 32 32;" xml:space="preserve">
<style type="text/css">
	.st0{fill:#E2E2E2;}
	.st1{fill:#C2C1C1;}
</style>
<script>
	!function(){function t(t){this.element=t,this.animationId,this.start=null,this.init()}if(!window.requestAnimationFrame){var i=null;window.requestAnimationFrame=function(t,n){var e=(new Date).getTime();i||(i=e);var a=Math.max(0,16-(e-i)),o=window.setTimeout(function(){t(e+a)},a);return i=e+a,o}}t.prototype.init=function(){var t=this;this.animationId=window.requestAnimationFrame(t.triggerAnimation.bind(t))},t.prototype.reset=function(){var t=this;window.cancelAnimationFrame(t.animationId)},t.prototype.triggerAnimation=function(t){var i=this;this.start||(this.start=t);var n=t-this.start;800&gt;n||(this.start=this.start+800),this.element.setAttribute(&quot;transform&quot;,&quot;rotate(&quot;+parseInt(Math.min(n/100,8))%8*45+&quot; 16 16)&quot;);if(document.documentElement.contains(this.element))window.requestAnimationFrame(i.triggerAnimation.bind(i))};var n=document.getElementsByClassName(&quot;nc-loop_dots-06-32&quot;),e=[];if(n)for(var a=0;n.length&gt;a;a++)!function(i){e.push(new t(n[i]))}(a);document.addEventListener(&quot;visibilitychange&quot;,function(){&quot;hidden&quot;==document.visibilityState?e.forEach(function(t){t.reset()}):e.forEach(function(t){t.init()})})}();
	</script>
<rect class="st0" width="32" height="32"/>
<g id="Group_14008-2">
	<path id="Path_23167-3" class="st1" d="M29.8,29.2c-0.3-1.4-1.4-2.6-2.8-3l-5.3-1.8c-1.3-0.5-1.9-2.6-2-3.4c1-0.8,1.6-2,1.8-3.2
		c0-0.5,0.1-0.6,0.1-0.6c0.2,0,0.4-0.2,0.4-0.4c0.4-0.8,0.6-1.7,0.6-2.6v-0.1c-0.1-0.3-0.6-0.8-0.6-0.8V10c0.1-1.2-0.3-2.4-1.2-3.2
		c0-0.8-1-2.7-4.7-2.7c-3.2,0.1-5.8,2.8-5.9,6v3.2c-0.2,0.3-0.4,0.5-0.6,0.8v0.1c0.2,0.9,0.4,1.8,0.7,2.6c0.1,0.1,0.1,0.2,0.4,0.4
		s0.2,0.2,0.2,0.6c0.1,1.3,0.8,2.4,1.8,3.2c-0.1,0.8-0.7,2.9-1.9,3.4l-5.3,1.8c-1.4,0.5-2.4,1.6-2.8,3l-0.8,2.8h28.8L29.8,29.2z"/>
</g>
</svg>
