<?xml version="1.0" encoding="utf-8"?>
<!-- Generator: Adobe Illustrator 26.0.0, SVG Export Plug-In . SVG Version: 6.00 Build 0)  -->
<svg version="1.1" id="Layer_1" xmlns="http://www.w3.org/2000/svg" xmlns:xlink="http://www.w3.org/1999/xlink" x="0px" y="0px"
	 viewBox="0 0 16 16" style="enable-background:new 0 0 16 16;" xml:space="preserve">
<style type="text/css">
	.st0{fill:#FFFFFF;fill-opacity:0;}
	.st1{fill:none;stroke:#F06666;stroke-linecap:round;stroke-linejoin:round;}
</style>
<rect class="st0" width="16" height="16"/>
<path class="st1" d="M12.8,6.8L12,14.6c-0.1,0.5-0.5,0.9-1,0.9H4c-0.5,0-0.9-0.4-1-0.9L2.2,6.8"/>
<line class="st1" x1="0.5" y1="4.5" x2="14.5" y2="4.5"/>
<line class="st1" x1="5.5" y1="8.5" x2="5.5" y2="12.5"/>
<line class="st1" x1="9.5" y1="8.5" x2="9.5" y2="12.5"/>
<path class="st1" d="M4.5,4.5v-2c0-0.5,0.4-1,0.9-1c0,0,0.1,0,0.1,0h4c0.5,0,1,0.4,1,0.9c0,0,0,0.1,0,0.1v2"/>
</svg>
