<?xml version="1.0" encoding="utf-8"?>
<!-- Generator: Adobe Illustrator 26.0.0, SVG Export Plug-In . SVG Version: 6.00 Build 0)  -->
<svg version="1.1" id="Layer_1" xmlns="http://www.w3.org/2000/svg" xmlns:xlink="http://www.w3.org/1999/xlink" x="0px" y="0px"
	 viewBox="0 0 25.6 26.5" style="enable-background:new 0 0 25.6 26.5;" xml:space="preserve">
<style type="text/css">
	.st0{fill:none;}
	.st1{fill:none;stroke:#BBBBBB;stroke-width:1.5;stroke-miterlimit:10;}
	.st2{fill:none;stroke:#BBBBBB;stroke-width:1.5;stroke-linecap:round;stroke-miterlimit:10;}
</style>
<g>
	<rect x="0.8" class="st0" width="24" height="25.2"/>
</g>
<path class="st1" d="M18.9,18.8H6.7c-0.6,0-1.1-0.5-1.1-1.1c0-0.1,0-0.1,0-0.2L7,9.3c0.2-0.9,0.9-1.5,1.9-1.6h7.9
	c0.9,0,1.7,0.7,1.9,1.6l1.5,8.1c0.1,0.6-0.3,1.2-0.9,1.3C19.1,18.7,19,18.8,18.9,18.8z"/>
<path class="st2" d="M9.8,10.2v-4c0-1.7,1.3-3,3-3l0,0c1.7,0,3,1.3,3,3v4"/>
</svg>
