<?xml version="1.0" encoding="utf-8"?>
<!-- Generator: Adobe Illustrator 26.0.0, SVG Export Plug-In . SVG Version: 6.00 Build 0)  -->
<svg version="1.1" id="Layer_1" xmlns="http://www.w3.org/2000/svg" xmlns:xlink="http://www.w3.org/1999/xlink" x="0px" y="0px"
	 viewBox="0 0 16 16" style="enable-background:new 0 0 16 16;" xml:space="preserve">
<style type="text/css">
	.st0{fill:none;stroke:#6C6D74;stroke-linecap:round;stroke-miterlimit:10;stroke-opacity:0;}
	.st1{fill:none;stroke:#6C6D74;stroke-linecap:round;stroke-miterlimit:10;}
</style>
<rect class="st0" width="16" height="16"/>
<path class="st1" d="M0.5,5.5h15"/>
<path class="st1" d="M14.5,2.5h-13c-0.5,0-1,0.4-1,0.9c0,0,0,0.1,0,0.1v11c0,0.5,0.4,1,0.9,1c0,0,0.1,0,0.1,0h13c0.5,0,1-0.4,1-0.9
	c0,0,0-0.1,0-0.1v-11C15.5,2.9,15.1,2.5,14.5,2.5z"/>
<path class="st1" d="M4.5,0.5v2"/>
<path class="st1" d="M11.5,0.5v2"/>
</svg>
