<?xml version="1.0" encoding="utf-8"?>
<!-- Generator: Adobe Illustrator 26.0.0, SVG Export Plug-In . SVG Version: 6.00 Build 0)  -->
<svg version="1.1" id="Layer_1" xmlns="http://www.w3.org/2000/svg" xmlns:xlink="http://www.w3.org/1999/xlink" x="0px" y="0px"
	 viewBox="0 0 595.28 841.89" style="enable-background:new 0 0 595.28 841.89;" xml:space="preserve">
<style type="text/css">
	.st0{fill:#FFFFFF;fill-opacity:0;}
	.st1{fill:#2EA048;}
	.st2{fill:#FFFFFF;}
</style>
<rect id="Rectangle_20602-2" x="285.5" y="409" class="st0" width="24" height="24"/>
<g id="_48px_pin-check-2">
	<path id="Path_22943-2" class="st1" d="M287.5,421c0,5.52,4.48,10,10,10s10-4.48,10-10s-4.48-10-10-10S287.5,415.48,287.5,421z"/>
	<path id="Path_22944-2" class="st2" d="M303.21,417.29c0.39,0.39,0.39,1.02,0.01,1.41c0,0,0,0-0.01,0.01l-7,7
		c-0.39,0.39-1.02,0.39-1.41,0.01c0,0,0,0-0.01-0.01l-3-3c-0.39-0.39-0.39-1.02-0.01-1.41c0,0,0,0,0.01-0.01
		c0.39-0.39,1.02-0.39,1.41,0l0,0l2.29,2.3l6.29-6.3c0.39-0.39,1.02-0.39,1.41-0.01C303.2,417.29,303.2,417.29,303.21,417.29
		L303.21,417.29z"/>
</g>
</svg>
