<?xml version="1.0" encoding="utf-8"?>
<!-- Generator: Adobe Illustrator 26.0.0, SVG Export Plug-In . SVG Version: 6.00 Build 0)  -->
<svg version="1.1" id="Layer_1" xmlns="http://www.w3.org/2000/svg" xmlns:xlink="http://www.w3.org/1999/xlink" x="0px" y="0px"
	 viewBox="0 0 56 56" style="enable-background:new 0 0 56 56;" xml:space="preserve">
<style type="text/css">
	.st0{fill:#E74935;}
	.st1{fill:#FFFFFF;}
</style>
<g id="Group_27445">
	<circle id="Ellipse_404" class="st0" cx="28" cy="28" r="28"/>
	<g id="Group_27469">
		<path id="Rectangle_16096" class="st1" d="M19.5,32.2l12.7-12.7c1.2-1.2,3.1-1.2,4.2,0l0,0c1.2,1.2,1.2,3.1,0,4.2L23.7,36.4
			c-1.2,1.2-3.1,1.2-4.2,0l0,0C18.3,35.3,18.3,33.4,19.5,32.2z"/>
		<path id="Rectangle_16097" class="st1" d="M19.5,19.5L19.5,19.5c1.2-1.2,3.1-1.2,4.2,0l12.7,12.7c1.2,1.2,1.2,3.1,0,4.2l0,0
			c-1.2,1.2-3.1,1.2-4.2,0L19.5,23.7C18.3,22.6,18.3,20.7,19.5,19.5z"/>
	</g>
</g>
</svg>
