<?xml version="1.0" encoding="utf-8"?>
<!-- Generator: Adobe Illustrator 26.0.0, SVG Export Plug-In . SVG Version: 6.00 Build 0)  -->
<svg version="1.1" id="Layer_1" xmlns="http://www.w3.org/2000/svg" xmlns:xlink="http://www.w3.org/1999/xlink" x="0px" y="0px"
	 viewBox="0 0 25.6 26.5" style="enable-background:new 0 0 25.6 26.5;" xml:space="preserve">
<style type="text/css">
	.st0{fill:none;stroke:#bbbbbb;stroke-width:1.5;stroke-linecap:round;stroke-miterlimit:10;stroke-dasharray:3.66,3.66;}
	.st1{fill:#bbbbbb;}
</style>
<circle class="st0" cx="12.8" cy="13.2" r="7"/>
<path class="st1" d="M13.7,15.4c0-0.2-0.1-0.5-0.2-0.6c-0.2-0.2-0.5-0.4-0.8-0.5c-0.6-0.2-1.2-0.5-1.6-0.9c-0.7-0.8-0.7-2,0-2.7
	c0.4-0.4,0.9-0.6,1.4-0.6V9h0.8v1.1c0.5,0.1,1,0.3,1.4,0.7c0.3,0.4,0.5,0.9,0.5,1.5l0,0h-1.4c0-0.3-0.1-0.6-0.2-0.8
	c-0.2-0.2-0.4-0.3-0.7-0.3c-0.2,0-0.5,0.1-0.7,0.2c-0.1,0.2-0.2,0.4-0.2,0.6c0,0.2,0.1,0.4,0.2,0.6c0.2,0.2,0.5,0.4,0.8,0.5
	c0.6,0.2,1.1,0.5,1.6,0.9c0.4,0.4,0.6,0.9,0.5,1.4c0,0.5-0.2,1-0.5,1.4c-0.4,0.4-0.9,0.6-1.5,0.6v1h-0.8v-1c-0.6,0-1.1-0.2-1.5-0.6
	c-0.4-0.4-0.6-1-0.6-1.6l0,0h1.4c0,0.3,0.1,0.7,0.3,0.9c0.2,0.2,0.5,0.3,0.8,0.3c0.3,0,0.5-0.1,0.7-0.2
	C13.6,15.9,13.7,15.6,13.7,15.4z"/>
</svg>
