<?xml version="1.0" encoding="utf-8"?>
<!-- Generator: Adobe Illustrator 26.0.0, SVG Export Plug-In . SVG Version: 6.00 Build 0)  -->
<svg version="1.1" id="Layer_1" xmlns="http://www.w3.org/2000/svg" xmlns:xlink="http://www.w3.org/1999/xlink" x="0px" y="0px"
	 viewBox="0 0 25.6 26.5" style="enable-background:new 0 0 25.6 26.5;" xml:space="preserve">
<style type="text/css">
	.st0{fill:none;}
	.st1{fill:none;stroke:#BBBBBB;stroke-width:1.5;stroke-miterlimit:10;}
</style>
<g>
	<rect x="1" y="0" class="st0" width="24" height="24"/>
</g>
<path class="st1" d="M17.6,11.2l-5.2,2.7l0.2-5.7V7c-3.9-0.3-7.3,2.6-7.5,6.5c-0.3,3.9,2.6,7.2,6.5,7.5c3.9,0.3,7.2-2.6,7.5-6.5
	c0-0.4,0-0.8,0-1.2c-0.1-0.9-0.3-1.7-0.7-2.5L17.6,11.2z"/>
<path class="st1" d="M15.1,9.6l5.2-2.7l0.6-0.3c-1.1-2.2-3.2-3.6-5.6-3.8v1.1L15.1,9.6z"/>
</svg>
