<?xml version="1.0" encoding="utf-8"?>
<!-- Generator: Adobe Illustrator 26.0.0, SVG Export Plug-In . SVG Version: 6.00 Build 0)  -->
<svg version="1.1" id="Layer_1" xmlns="http://www.w3.org/2000/svg" xmlns:xlink="http://www.w3.org/1999/xlink" x="0px" y="0px"
	 viewBox="0 0 25.6 26.5" style="enable-background:new 0 0 25.6 26.5;" xml:space="preserve">
<style type="text/css">
	.st0{fill:#ffffff;fill-opacity:0;}
	.st1{fill:none;stroke:#ffffff;stroke-width:2;stroke-linecap:square;stroke-miterlimit:10;}
	.st2{fill:#ffffff;}
</style>
<g id="Notify-2">
	<rect id="Rectangle_1558-3" x="0.9" y="1.1" class="st0" width="24" height="24"/>
	<g id="Group_12310-2-3">
		<path id="Path_11048-3" class="st1" d="M19.9,12.1v-3c0-3.9-3.1-7-7-7s-7,3.1-7,7v3c0,3.3-3,4.1-3,6c0,1.7,3.9,3,10,3s10-1.3,10-3
			C22.9,16.2,19.9,15.4,19.9,12.1z"/>
		<path id="Path_11049-3" class="st2" d="M12.9,23.1c-1,0-1.9,0-2.9-0.1c0.5,1.6,2.1,2.5,3.7,2c0,0,0,0,0.1,0c1-0.3,1.7-1,2-2
			C14.9,23.1,13.9,23.2,12.9,23.1z"/>
	</g>
</g>
</svg>
