<?xml version="1.0" encoding="utf-8"?>
<!-- Generator: Adobe Illustrator 26.0.0, SVG Export Plug-In . SVG Version: 6.00 Build 0)  -->
<svg version="1.1" id="Layer_1" xmlns="http://www.w3.org/2000/svg" xmlns:xlink="http://www.w3.org/1999/xlink" x="0px" y="0px"
	 viewBox="0 0 25.6 26.5" style="enable-background:new 0 0 25.6 26.5;" xml:space="preserve">
<style type="text/css">
	.st0{fill:none;stroke:#A8A8A8;stroke-width:1.5;stroke-miterlimit:10;}
</style>
<path class="st0" d="M18.3,17.8L18.3,17.8c-0.9,1.5-2.4,2.4-4.2,2.4h-2.6c-1.7,0-3.3-0.9-4.2-2.4l0,0c-1-1.8-0.8-4,0.5-5.6l3-3.4
	L8.1,5.1c0-0.1,0-0.2,0.1-0.3h0.1c0.7,0,1.5,0,2.2,0c0.8-0.1,2.4-1,3.3-1C15,4,16.1,4.2,17.2,4.7c0.2,0.1,0.4,0.3,0.3,0.5
	c0,0.1,0,0.1-0.1,0.2l-2.7,3.5l3,3.4C19.1,13.8,19.3,15.9,18.3,17.8z"/>
<path class="st0" d="M7.8,8.8c1.6-0.7,3.4-0.7,5,0c2,1,4.1,0,5,0"/>
</svg>
