<?xml version="1.0" encoding="utf-8"?>
<!-- Generator: Adobe Illustrator 26.0.0, SVG Export Plug-In . SVG Version: 6.00 Build 0)  -->
<svg version="1.1" id="Layer_1" xmlns="http://www.w3.org/2000/svg" xmlns:xlink="http://www.w3.org/1999/xlink" x="0px" y="0px"
	 viewBox="0 0 16 16" style="enable-background:new 0 0 16 16;" xml:space="preserve">
<style type="text/css">
	.st0{fill:none;}
	.st1{fill:#ffffff;}
</style>
<path id="Path_80-2" class="st0" d="M-4-4h24v24H-4V-4z"/>
<path id="Path_81-2" class="st1" d="M0,0h4v4H0V0z"/>
<path id="Path_82-2" class="st1" d="M6,0h4v4H6V0z"/>
<path id="Path_83-2" class="st1" d="M12,0h4v4h-4V0z"/>
<path id="Path_84-2" class="st1" d="M12,6h4v4h-4V6z"/>
<path id="Path_89-2" class="st1" d="M12,12h4v4h-4V12z"/>
<path id="Path_85-2" class="st1" d="M6,6h4v4H6V6z"/>
<path id="Path_88-2" class="st1" d="M6,12h4v4H6V12z"/>
<path id="Path_86-2" class="st1" d="M0,6h4v4H0V6z"/>
<path id="Path_87-2" class="st1" d="M0,12h4v4H0V12z"/>
</svg>
