<?xml version="1.0" encoding="utf-8"?>
<!-- Generator: Adobe Illustrator 26.0.0, SVG Export Plug-In . SVG Version: 6.00 Build 0)  -->
<svg version="1.1" id="Layer_1" xmlns="http://www.w3.org/2000/svg" xmlns:xlink="http://www.w3.org/1999/xlink" x="0px" y="0px"
	 viewBox="0 0 16 16" style="enable-background:new 0 0 16 16;" xml:space="preserve">
<style type="text/css">
	.st0{fill:#FFFFFF;fill-opacity:0;}
	.st1{fill:#bbbbbb;}
	.st2{fill:none;stroke:#bbbbbb;stroke-linecap:round;stroke-linejoin:round;}
</style>
<polyline class="st0" points="0,16 0,0 16,0 16,16 "/>
<g id="Group_28605">
	<rect id="Rectangle_15410" x="2" y="7" class="st1" width="10" height="2"/>
	<path id="Polygon_1" class="st1" d="M16,8l-4,3.5l0-7L16,8z"/>
	<path id="Rectangle_7819-3" class="st2" d="M2,1H8c0.8,0,1.5,1,1.5,2.3c0,0,0,0,0,0v9.5C9.5,14,8.8,15,8,15l0,0H2
		c-0.8,0-1.5-1-1.5-2.3c0,0,0,0,0,0V3.3C0.5,2,1.2,1,2,1L2,1z"/>
</g>
</svg>
