<?xml version="1.0" encoding="utf-8"?>
<!-- Generator: Adobe Illustrator 26.0.0, SVG Export Plug-In . SVG Version: 6.00 Build 0)  -->
<svg version="1.1" id="Layer_1" xmlns="http://www.w3.org/2000/svg"
                            xmlns:xlink="http://www.w3.org/1999/xlink" x="0px" y="0px" viewBox="0 0 24 24"
                            style="enable-background:new 0 0 24 24;" xml:space="preserve">
                            <style type="text/css">
                                .st0 {
                                    fill: none;
                                }

                                .st1 {
                                    fill: #424242;
                                }
                            </style>
                            <g id="Menu-2">
                                <rect id="Rectangle_1558-2-3" y="0" class="st0" width="24" height="24" />
                                <g id="Group_1217-2">
                                    <g id="Group_1216-2">
                                        <path id="Rectangle_1550-2" class="st1" d="M5,5h14c0.5,0,1,0.4,1,0.9V6l0,0c0,0.5-0.4,1-0.9,1H19H5C4.5,7,4,6.6,4,6.1V6l0,0
				C4,5.5,4.4,5,5,5L5,5z" />
                                        <path id="Rectangle_1551-2" class="st1" d="M5,11h14c0.5,0,1,0.4,1,0.9V12l0,0c0,0.5-0.4,1-0.9,1H19H5c-0.5,0-1-0.4-1-0.9V12l0,0
				C4,11.5,4.4,11,5,11L5,11z" />
                                        <path id="Rectangle_1552-2" class="st1" d="M5,17h14c0.5,0,1,0.4,1,0.9V18l0,0c0,0.5-0.4,1-0.9,1H19H5c-0.5,0-1-0.4-1-0.9V18l0,0
				C4,17.5,4.4,17,5,17L5,17z" />
                                    </g>
                                </g>
                            </g>
                        </svg>
