<?xml version="1.0" encoding="utf-8"?>
<!-- Generator: Adobe Illustrator 26.0.0, SVG Export Plug-In . SVG Version: 6.00 Build 0)  -->
<svg version="1.1" id="Layer_1" xmlns="http://www.w3.org/2000/svg" xmlns:xlink="http://www.w3.org/1999/xlink" x="0px" y="0px"
	 viewBox="0 0 25.6 26.5" style="enable-background:new 0 0 25.6 26.5;" xml:space="preserve">
<style type="text/css">
	.st0{fill:none;}
	.st1{fill:none;stroke:#BBBBBB;stroke-width:1.5;stroke-miterlimit:10;}
	.st2{fill:#BBBBBB;}
</style>
<g>
	<rect x="0.8" y="1.2" class="st0" width="24" height="24"/>
</g>
<path class="st1" d="M11.4,20.3l-5.6-5.7c-0.4-0.4-0.4-1,0-1.4l0,0l7.4-7.4c0.2-0.3,0.6-0.4,1-0.3l5.5,0.1c0.4,0.1,0.6,0.4,0.7,0.7
	l0.1,5.5c0.1,0.4,0,0.7-0.3,1l-7.4,7.6C12.4,20.7,11.8,20.7,11.4,20.3L11.4,20.3z"/>
<path class="st2" d="M13.2,14.3c0.1-0.1,0.2-0.3,0.2-0.5c0-0.3-0.1-0.5-0.2-0.7c-0.2-0.4-0.4-0.9-0.4-1.4c0-0.8,0.7-1.5,1.5-1.6
	c0.4,0,0.8,0.2,1.2,0.5l0.6-0.6l0.4,0.4L15.9,11c0.3,0.3,0.4,0.7,0.4,1.2c0,0.4-0.2,0.8-0.6,1.1l0,0L15,12.5
	c0.2-0.2,0.3-0.4,0.3-0.6c0-0.2-0.1-0.4-0.2-0.6c-0.1-0.2-0.3-0.2-0.5-0.2s-0.4,0.1-0.5,0.2c-0.1,0.1-0.2,0.3-0.2,0.5
	c0,0.3,0.1,0.5,0.2,0.8c0.2,0.4,0.4,0.9,0.4,1.4c0,0.8-0.7,1.5-1.6,1.6c-0.4,0-0.8-0.2-1.2-0.5l-0.5,0.5l-0.4-0.4l0.5-0.5
	c-0.3-0.3-0.5-0.8-0.5-1.2c0-0.5,0.2-0.9,0.6-1.2l0,0l0.8,0.8c-0.2,0.2-0.3,0.4-0.3,0.7c0,0.2,0.1,0.4,0.3,0.6
	c0.1,0.2,0.3,0.3,0.5,0.3C12.9,14.5,13,14.4,13.2,14.3z"/>
<circle class="st2" cx="17.8" cy="8.6" r="1"/>
</svg>
