<?xml version="1.0" encoding="utf-8"?>
<!-- Generator: Adobe Illustrator 26.0.0, SVG Export Plug-In . SVG Version: 6.00 Build 0)  -->
<svg version="1.1" id="Layer_1" xmlns="http://www.w3.org/2000/svg" xmlns:xlink="http://www.w3.org/1999/xlink" x="0px" y="0px"
	 viewBox="0 0 24 24" style="enable-background:new 0 0 24 24;" xml:space="preserve">
<style type="text/css">
	.st0{fill:none;}
	.st1{fill:none;stroke:#bbbbbb;stroke-linecap:square;stroke-miterlimit:10;}
	.st2{fill:none;stroke:#bbbbbb;stroke-miterlimit:10;}
</style>
<g id="Group_27185-2">
	<circle id="Ellipse_1877-20" class="st0" cx="12" cy="12" r="12"/>
	<g id="_48px_settings-2">
		<g id="Group_27186-2">
			<path id="Path_23119-4" class="st1" d="M15.9,12.9l1,0.9c0.7,0.5,0.8,1.4,0.3,2.1c-0.5,0.7-1.4,0.8-2.1,0.3
				c-0.1,0-0.1-0.1-0.2-0.1c0,0-0.1-0.1-0.1-0.1l-1.3-1.5"/>
			<path id="Path_23120-3" class="st2" d="M12.1,10.3l-1.8-1.8V7.9L8.9,6.4L7.4,7.9l1.5,1.5h0.6l1.7,1.7"/>
			<path id="Path_23121-3" class="st1" d="M17.5,7.9l-1.4,1.4l-1.7-1.7l1.4-1.4c-0.3-0.1-0.7-0.1-1-0.1c-1.3,0.1-2.3,1.1-2.4,2.4
				c0,0.3,0,0.7,0.1,1L7.6,14c-0.3,0.3-0.3,0.7-0.1,1.1c0,0,0,0,0,0h0l1.1,1.1c0.3,0.3,0.8,0.3,1,0l0,0l4.4-4.9
				c0.3,0.1,0.7,0.1,1,0.1c1.3-0.1,2.3-1.1,2.4-2.4C17.7,8.6,17.6,8.2,17.5,7.9L17.5,7.9z"/>
		</g>
	</g>
</g>
</svg>
