<?xml version="1.0" encoding="utf-8"?>
<!-- Generator: Adobe Illustrator 26.0.0, SVG Export Plug-In . SVG Version: 6.00 Build 0)  -->
<svg version="1.1" id="Layer_1" xmlns="http://www.w3.org/2000/svg" xmlns:xlink="http://www.w3.org/1999/xlink" x="0px" y="0px"
	 viewBox="0 0 48 48" style="enable-background:new 0 0 48 48;" xml:space="preserve">
<style type="text/css">
	.st0{fill:#FFFFFF;fill-opacity:0;}
	.st1{fill:#FCE100;stroke:#FDB813;stroke-miterlimit:10;}
	.st2{fill:#010101;}
</style>
<rect id="Rectangle_7822" class="st0" width="48" height="48"/>
<path id="Path_23066" class="st1" d="M22.5,8.8L6.8,40.2c-0.4,0.8,0,1.8,0.8,2.2c0.2,0.1,0.5,0.2,0.7,0.1h31.3
	c0.9,0,1.7-0.8,1.6-1.7c0-0.2-0.1-0.4-0.1-0.6L25.5,8.8C25,8,24,7.7,23.2,8.2c0,0,0,0,0,0C22.9,8.3,22.7,8.6,22.5,8.8z"/>
<circle id="Ellipse_1812" class="st2" cx="24" cy="35" r="1"/>
<path id="Rectangle_7823" class="st2" d="M24,19L24,19c0.6,0,1,0.4,1,1v11c0,0.6-0.4,1-1,1l0,0c-0.6,0-1-0.4-1-1V20
	C23,19.4,23.4,19,24,19z"/>
</svg>
